HIERARCHY
ROOT Hips
{
    OFFSET 0.000000 0.000000 0.000000
    CHANNELS 6 Xposition Yposition Zposition Zrotation Xrotation Yrotation
        JOINT Chest
        {
            OFFSET -0.000000 31.804140 -0.000000
            CHANNELS 3 Zrotation Xrotation Yrotation
            JOINT Neck
            {
                OFFSET -0.000000 23.903318 0.000000
                CHANNELS 3 Zrotation Xrotation Yrotation
                JOINT Head
                {
                    OFFSET -0.000000 10.511110 0.000000
                    CHANNELS 3 Zrotation Xrotation Yrotation
                    End Site
                    {
                        OFFSET -0.000000 16.244448 0.000000
                    }
                }
            }
            JOINT LeftCollar
            {
                OFFSET -0.000000 23.903318 0.000000
                CHANNELS 3 Zrotation Xrotation Yrotation
                JOINT LeftShoulder
                {
                    OFFSET 20.500000 -0.000000 0.000000
                    CHANNELS 3 Zrotation Xrotation Yrotation
                    JOINT LeftElbow
                    {
                        OFFSET 20.922438 0.000000 0.000000
                        CHANNELS 3 Zrotation Xrotation Yrotation
                        JOINT LeftWrist
                        {
                            OFFSET 26.373112 0.000000 0.000000
                            CHANNELS 3 Zrotation Xrotation Yrotation
                            End Site
                            {
                                OFFSET 0.000000 -14.333333 0.000000
                            }
                        }
                    }
                }
            }
            JOINT RightCollar
            {
                OFFSET -0.000000 23.903318 0.000000
                CHANNELS 3 Zrotation Xrotation Yrotation
                JOINT RightShoulder
                {
                    OFFSET -20.500000 0.000000 0.000000
                    CHANNELS 3 Zrotation Xrotation Yrotation
                    JOINT RightElbow
                    {
                        OFFSET -20.922438 0.000000 0.000000
                        CHANNELS 3 Zrotation Xrotation Yrotation
                        JOINT RightWrist
                        {
                            OFFSET -26.373112 0.000000 0.000000
                            CHANNELS 3 Zrotation Xrotation Yrotation
                            End Site
                            {
                                OFFSET -0.000000 -14.333333 0.000000
                            }
                        }
                    }
                }
            }
        }
    JOINT LeftHip
    {
        OFFSET 11.466667 0.000000 0.000000
        CHANNELS 3 Zrotation Xrotation Yrotation
        JOINT LeftKnee
        {
            OFFSET -0.000000 -37.458855 0.000000
            CHANNELS 3 Zrotation Xrotation Yrotation
            JOINT LeftAnkle
            {
                OFFSET -0.000000 -39.235966 0.000000
                CHANNELS 3 Zrotation Xrotation Yrotation
                End Site
                {
                    OFFSET -0.000000 -4.777778 16.244448
                }
            }
        }
    }
    JOINT RightHip
    {
        OFFSET -11.466667 0.000000 0.000000
        CHANNELS 3 Zrotation Xrotation Yrotation
        JOINT RightKnee
        {
            OFFSET -0.000000 -37.458855 0.000000
            CHANNELS 3 Zrotation Xrotation Yrotation
            JOINT RightAnkle
            {
                OFFSET -0.000000 -39.235966 0.000000
                CHANNELS 3 Zrotation Xrotation Yrotation
                End Site
                {
                    OFFSET -0.000000 -4.777778 16.244448
                }
            }
        }
    }
}
MOTION
Frames:    9
Frame Time:    0.010000
-68.970528    82.562218    -104.782570    -0.606168    -9.696970    18.440077    1.508759    25.152281    -2.915561    -14.957373    15.072552    0.501600    17.613207    -32.797935    3.465782    -9.607170    -0.077413    1.328862    -50.426861    28.056496    -20.250177    -12.892019    12.642612    -88.746643    149.622955    -28.463320    7.904099    20.927090    1.119931    6.272266    38.973652    40.795792    15.729322    4.110988    2.865391    70.381523    -145.294434    -43.660770    14.103875    25.283525    3.957890    -1.678190    -22.170286    33.611237    31.844713    -14.198580    -4.995163    13.187131    -9.177793    -10.328128    -5.746120    0.805049    36.251816    -12.316079    11.577207    -6.505346    -6.743492    
-69.004196    83.223228    -104.865921    -0.682237    -9.319846    18.854116    1.681839    25.086367    -3.054004    -17.273767    13.543028    0.633201    19.914886    -30.266203    3.922466    -10.021013    -0.107506    1.523949    -51.817593    26.921392    -19.521391    -13.385456    13.478190    -88.453110    152.703400    -27.506670    9.877945    19.963280    1.095601    6.610170    39.211491    42.171490    16.336552    3.066971    1.590828    69.605217    -144.889175    -42.691906    13.552557    25.676380    2.895650    -2.236064    -22.683966    33.471832    31.561722    -15.336161    -2.705489    14.024015    -9.163119    -10.233480    -5.219581    1.201450    35.101517    -13.289560    11.445836    -4.479887    -7.011967    
-68.953926    84.465004    -104.910347    -1.423388    -9.249254    19.263126    1.255420    24.789734    -4.199746    -16.423704    10.910426    0.930952    20.928785    -25.530413    4.230049    -8.629887    -0.113208    1.650581    -52.843712    27.177063    -19.093481    -13.244483    12.736785    -88.162537    148.985855    -28.597868    7.353096    20.758604    1.140229    6.181997    39.217281    43.039112    17.019716    2.304514    1.065687    69.281982    -145.527267    -42.503433    12.588748    26.723282    2.298589    -1.522077    -22.208622    32.924641    29.687344    -14.031274    0.650119    14.269986    -8.579136    -9.337016    -5.891675    1.199740    32.759644    -13.327847    11.983474    -1.655463    -6.967398    
-68.903862    85.102570    -104.986916    -1.551647    -8.962982    19.524405    1.158512    24.510229    -4.401831    -16.854467    9.862819    1.006078    21.542830    -23.383976    4.051227    -8.484761    -0.136704    1.895990    -53.730255    27.119930    -18.689781    -13.166006    12.661942    -88.017891    148.717224    -28.424877    7.173092    20.504553    1.093145    6.037548    39.293407    43.840458    17.377043    1.658666    0.676828    68.958458    -145.716614    -41.898300    12.125278    26.840422    1.805529    -1.375950    -21.950357    32.489674    29.016493    -13.876292    2.485867    14.458925    -8.646304    -8.987820    -6.078702    1.280695    31.373966    -13.546808    12.280717    0.047261    -6.992134    
-68.831825    85.808395    -105.082527    -1.675283    -8.594430    19.781282    1.060399    24.094595    -4.547355    -16.897718    9.138340    0.977640    21.670923    -21.507879    3.771015    -8.298342    -0.164841    1.880609    -54.727886    27.149965    -18.101280    -13.056632    12.498058    -87.916740    148.259232    -28.279833    6.881830    20.272770    1.049520    5.660289    39.433292    44.569408    17.672777    1.065445    0.308808    68.669930    -145.674561    -41.322861    11.852190    26.866650    1.308333    -1.153565    -21.565872    31.918354    28.273474    -13.686214    4.430678    14.584116    -8.774549    -8.599935    -6.303132    1.344350    29.736801    -13.770194    12.715728    1.980681    -7.020746    
-68.735550    86.559258    -105.194130    -1.793308    -8.147640    20.010489    0.966706    23.579271    -4.611905    -16.859430    8.521426    0.927699    21.556824    -19.701286    3.445202    -8.145210    -0.140008    1.889739    -55.756458    27.199768    -17.517275    -12.946239    12.365750    -87.806725    147.840927    -28.064667    6.609631    19.989555    0.966319    5.230703    39.606422    45.275581    17.893854    0.537788    -0.006644    68.455849    -145.418594    -40.773403    11.767920    26.788572    0.845466    -0.864984    -21.058712    31.201910    27.479959    -13.462945    6.379296    14.621025    -8.955141    -8.180145    -6.539331    1.381038    27.868366    -14.008711    13.324636    4.093400    -7.084739    
-68.613968    87.328300    -105.317329    -1.902368    -7.634121    20.189875    0.885560    22.982605    -4.574792    -16.730284    8.058890    0.864443    21.180471    -18.057980    3.079547    -8.036506    -0.108406    1.914847    -56.788719    27.266651    -16.925304    -12.813434    12.206691    -87.778915    147.344269    -27.848232    6.299405    19.656763    0.877677    4.754773    39.806408    45.889339    18.032064    0.161282    -0.174969    68.318199    -145.046524    -40.263737    11.853786    26.598600    0.455201    -0.538913    -20.447399    30.341167    26.666643    -13.216505    8.213173    14.553479    -9.175890    -7.736091    -6.754239    1.383327    25.809464    -14.280591    14.140542    6.311080    -7.233878    
-68.467339    88.086670    -105.446686    -1.996755    -7.072515    20.300901    0.825289    22.334925    -4.421595    -16.520054    7.780262    0.783023    20.554836    -16.658699    2.698166    -7.982185    -0.126366    1.950348    -57.803593    27.338070    -16.295773    -12.664659    12.063576    -87.845589    146.814789    -27.626511    5.978154    19.278513    0.785156    4.246608    40.001442    46.396122    18.106188    -0.068350    -0.233298    68.287056    -144.542191    -39.825142    12.103613    26.295673    0.171609    -0.217504    -19.762960    29.349960    25.873055    -12.965100    9.810694    14.378053    -9.423743    -7.277854    -6.912279    1.347889    23.626936    -14.602440    15.170683    8.530528    -7.529508    
-68.297157    88.805428    -105.576202    -2.068856    -6.487491    20.330536    0.793684    21.672760    -4.147757    -16.250849    7.701977    0.697137    19.710617    -15.587090    2.312737    -7.992332    -0.126715    1.991874    -58.728523    27.333994    -15.705761    -12.601850    12.095374    -87.894951    146.475571    -27.361549    5.735687    18.861744    0.687410    3.729152    40.180298    46.781857    18.118582    -0.147939    -0.188101    68.367249    -143.953171    -39.470383    12.483847    25.884636    0.021417    0.053053    -19.040358    28.256271    25.142895    -12.728837    11.064261    14.101404    -9.687483    -6.817472    -6.978812    1.277752    21.412302    -14.989023    16.381332    10.623268    -8.024874    
